<?xml version="1.0" encoding="utf-8"?>
<!-- Generator: Adobe Illustrator 26.3.1, SVG Export Plug-In . SVG Version: 6.00 Build 0)  -->
<svg version="1.1" id="Ebene_1" xmlns="http://www.w3.org/2000/svg" xmlns:xlink="http://www.w3.org/1999/xlink" x="0px" y="0px"
	 viewBox="0 0 1208.53 582.77" style="enable-background:new 0 0 1208.53 582.77;" xml:space="preserve">
<style type="text/css">
	.st0{fill:#0075BF;}
	.st1{fill:#47536B;}
</style>
<g>
	<path class="st0" d="M586.03,386.36c0-15.14,3.61-26.76,10.82-34.87c7.21-8.1,18.03-12.15,32.46-12.15
		c14.43,0,25.25,4.05,32.46,12.15c7.21,8.11,10.82,19.73,10.82,34.87v5.88h-27.78v-7.75c0-6.77-1.29-11.53-3.88-14.29
		c-2.58-2.76-6.19-4.14-10.82-4.14c-4.64,0-8.24,1.38-10.82,4.14c-2.58,2.76-3.88,7.53-3.88,14.29c0,6.41,1.42,12.07,4.28,16.96
		c2.85,4.9,6.41,9.53,10.69,13.89c4.27,4.37,8.86,8.73,13.76,13.09c4.9,4.37,9.49,9.13,13.76,14.29
		c4.27,5.17,7.84,11.04,10.69,17.63c2.85,6.59,4.27,14.34,4.27,23.24c0,15.14-3.7,26.76-11.09,34.87
		c-7.39,8.11-18.3,12.16-32.73,12.16c-14.43,0-25.34-4.05-32.73-12.16c-7.39-8.1-11.09-19.72-11.09-34.87v-11.49h27.79v13.36
		c0,6.77,1.38,11.49,4.14,14.16c2.76,2.67,6.45,4.01,11.09,4.01c4.63,0,8.32-1.34,11.09-4.01c2.76-2.67,4.14-7.39,4.14-14.16
		c0-6.41-1.43-12.07-4.28-16.97c-2.85-4.9-6.41-9.53-10.69-13.89c-4.28-4.36-8.86-8.72-13.76-13.09c-4.9-4.36-9.48-9.12-13.76-14.29
		c-4.27-5.16-7.84-11.04-10.68-17.63C587.46,403.02,586.03,395.27,586.03,386.36"/>
	<path class="st0" d="M685.95,386.36c0-15.14,3.61-26.76,10.82-34.87c7.21-8.1,18.03-12.15,32.46-12.15
		c14.43,0,25.25,4.05,32.46,12.15c7.21,8.11,10.82,19.73,10.82,34.87v5.88h-27.78v-7.75c0-6.77-1.3-11.53-3.87-14.29
		c-2.58-2.76-6.19-4.14-10.82-4.14c-4.63,0-8.24,1.38-10.82,4.14c-2.58,2.76-3.88,7.53-3.88,14.29c0,6.41,1.42,12.07,4.28,16.96
		c2.85,4.9,6.41,9.53,10.69,13.89c4.27,4.37,8.86,8.73,13.76,13.09c4.9,4.37,9.49,9.13,13.76,14.29
		c4.27,5.17,7.84,11.04,10.69,17.63c2.85,6.59,4.27,14.34,4.27,23.24c0,15.14-3.7,26.76-11.09,34.87
		c-7.39,8.11-18.3,12.16-32.73,12.16c-14.43,0-25.34-4.05-32.73-12.16c-7.39-8.1-11.09-19.72-11.09-34.87v-11.49h27.79v13.36
		c0,6.77,1.38,11.49,4.14,14.16c2.76,2.67,6.45,4.01,11.09,4.01c4.63,0,8.32-1.34,11.09-4.01c2.76-2.67,4.14-7.39,4.14-14.16
		c0-6.41-1.43-12.07-4.28-16.97c-2.85-4.9-6.41-9.53-10.69-13.89c-4.28-4.36-8.86-8.72-13.76-13.09c-4.9-4.36-9.48-9.12-13.76-14.29
		c-4.27-5.16-7.84-11.04-10.69-17.63C687.38,403.02,685.95,395.27,685.95,386.36"/>
	<polygon class="st0" points="789.61,341.48 819,341.48 819,501.78 867.36,501.78 867.36,528.5 789.61,528.5 	"/>
	<path class="st1" d="M634.12,104.36c15.32,0,26.41,3.57,33.26,10.69c6.85,7.13,10.29,17.9,10.29,32.33v6.68
		c0,9.62-1.52,17.55-4.54,23.78c-3.03,6.24-7.84,10.87-14.43,13.89c8.02,3.03,13.67,7.97,16.96,14.83
		c3.29,6.86,4.94,15.27,4.94,25.25v15.23c0,14.43-3.74,25.43-11.22,33c-7.48,7.57-18.61,11.35-33.4,11.35h-46.22V104.36H634.12z
		 M619.16,131.08v49.43h11.49c5.52,0,9.84-1.42,12.96-4.27c3.11-2.85,4.67-8.01,4.67-15.5v-10.42c0-6.77-1.2-11.66-3.61-14.69
		c-2.4-3.03-6.19-4.54-11.35-4.54H619.16z M619.16,207.22v57.44h16.83c4.98,0,8.77-1.34,11.35-4.01c2.58-2.67,3.88-7.48,3.88-14.43
		v-16.3c0-8.73-1.47-14.69-4.41-17.9c-2.94-3.21-7.8-4.81-14.56-4.81H619.16z"/>
	<polygon class="st1" points="727.63,183.18 767.97,183.18 767.97,209.9 727.63,209.9 727.63,264.67 778.39,264.67 778.39,291.38 
		698.24,291.38 698.24,104.36 778.39,104.36 778.39,131.08 727.63,131.08 	"/>
	<polygon class="st1" points="824.08,229.4 786.94,104.36 817.67,104.36 840.11,189.59 862.55,104.36 890.61,104.36 853.47,229.4 
		853.47,291.38 824.08,291.38 	"/>
	<path class="st1" d="M895.95,149.25c0-15.14,3.83-26.76,11.49-34.87c7.66-8.1,18.7-12.16,33.13-12.16s25.47,4.05,33.13,12.16
		c7.66,8.11,11.49,19.73,11.49,34.87v97.25c0,15.14-3.83,26.76-11.49,34.86c-7.66,8.11-18.7,12.16-33.13,12.16
		s-25.47-4.05-33.13-12.16c-7.66-8.1-11.49-19.72-11.49-34.86V149.25z M925.34,248.37c0,6.77,1.38,11.53,4.14,14.29
		c2.76,2.76,6.45,4.14,11.09,4.14c4.63,0,8.33-1.38,11.09-4.14c2.76-2.76,4.14-7.52,4.14-14.29V147.38c0-6.77-1.38-11.53-4.14-14.29
		c-2.76-2.76-6.46-4.14-11.09-4.14c-4.63,0-8.33,1.38-11.09,4.14c-2.77,2.76-4.14,7.53-4.14,14.29V248.37z"/>
	<polygon class="st1" points="1030.33,155.93 1030.33,291.38 1003.88,291.38 1003.88,104.36 1040.75,104.36 1070.94,216.31 
		1070.94,104.36 1097.12,104.36 1097.12,291.38 1066.93,291.38 	"/>
	<path class="st1" d="M1118.23,104.36h46.49c14.78,0,25.78,3.92,32.99,11.76c7.21,7.84,10.82,19.33,10.82,34.47v94.58
		c0,15.14-3.61,26.63-10.82,34.46c-7.21,7.84-18.21,11.76-32.99,11.76h-46.49V104.36z M1147.62,131.08v133.59h16.56
		c4.63,0,8.28-1.34,10.96-4.01c2.67-2.67,4.01-7.39,4.01-14.16v-97.25c0-6.77-1.34-11.49-4.01-14.16
		c-2.67-2.67-6.33-4.01-10.96-4.01H1147.62z"/>
	<path class="st0" d="M259.3,161.55c-33.68,0-61.09,30.9-61.09,68.88H320.4C320.4,192.45,292.99,161.55,259.3,161.55"/>
	<path class="st0" d="M259.31,0c0,0-149.7,93.56-259.31,98.91c2.67,122.97,66.83,406.33,259.31,483.86
		c192.47-77.52,256.63-360.89,259.3-483.86C409.01,93.56,259.31,0,259.31,0 M354.2,382.26H164.41c-7.86,0-14.3-6.43-14.3-14.3
		V244.73c0-7.86,6.43-14.3,14.3-14.3h8.76c0-51.79,38.64-93.93,86.14-93.93s86.14,42.14,86.14,93.93h8.76
		c7.86,0,14.3,6.43,14.3,14.3v123.23C368.5,375.82,362.06,382.26,354.2,382.26"/>
</g>
</svg>
