<?xml version="1.0" encoding="utf-8"?>
<!-- Generator: Adobe Illustrator 26.3.1, SVG Export Plug-In . SVG Version: 6.00 Build 0)  -->
<svg version="1.1" id="Ebene_1" xmlns="http://www.w3.org/2000/svg" xmlns:xlink="http://www.w3.org/1999/xlink" x="0px" y="0px"
	 viewBox="0 0 923.22 121.31" style="enable-background:new 0 0 923.22 121.31;" xml:space="preserve">
<g>
	<path d="M1.78,92.89c0,0,12.97,15.63,30.55,15.63c10.12,0,19.01-6.93,19.01-19.36c0-23.44-50.98-24.33-50.98-55.77
		C0.36,15.1,14.56,0,34.64,0c14.03,0,23.98,4.97,29.31,8.35l-4.62,12.97c-0.36-0.89-11.72-8.7-25.22-8.7
		c-8.35,0-17.05,5.68-17.05,15.99c0,25.58,50.09,23.45,50.09,58.26c0,20.07-13.68,34.46-35.35,34.46C10.83,121.31,0,108.17,0,108.17
		C0.18,107.99,1.78,92.89,1.78,92.89"/>
	<path d="M133.92,24.69c17.76,0,34.99,9.06,34.99,28.77c0,16.52-17.23,31.08-40.32,31.08h-7.46v22.91l1.78,11.54h-16.87V38.54
		l-2.31-13.85H133.92z M131.08,72.64c11.72,0,21.85-7.28,21.85-19.18c0-11.19-10.12-16.87-21.85-16.87h-9.95v36.06H131.08z"/>
	<path d="M223.79,24.69l9.06-1.95l32.5,79.57l8.53,16.7h-17.76l-10.12-24.51h-38.72L196.79,119h-14.21L223.79,24.69z M212.07,82.41
		h29.31l-12.43-30.73l-1.6-5.33l-1.95,5.33L212.07,82.41z"/>
	<path d="M361.44,119l-28.06-34.64l-13.32,0.18v22.91l1.78,11.54h-16.87V38.54l-2.31-13.85h30.2c17.76,0,34.99,9.06,34.99,28.77
		c0,10.83-7.82,21.49-19.54,27L381.15,119H361.44z M330,72.64c11.72,0,21.85-8.7,21.85-19.18c0-11.19-10.12-16.87-21.85-16.87h-9.95
		v36.06H330z"/>
	<polygon points="468,119 428.39,72.47 428.39,107.46 430.17,119 413.3,119 413.3,38.54 410.99,24.69 428.39,24.69 428.39,68.2 
		459.48,34.1 459.3,34.28 464.27,24.69 486.47,24.69 444.91,69.09 488.61,119 	"/>
	<polygon points="557.69,121.31 546.5,119 511.16,21.67 500.86,2.13 522.17,2.13 550.06,80.28 553.79,95.2 558.4,80.28 587.89,2.13 
		603.7,2.13 	"/>
	<polygon points="649.34,107.46 651.12,119 634.24,119 634.24,38.54 631.93,24.69 649.34,24.69 	"/>
	<polygon points="699.25,38.54 696.94,24.69 752.53,24.69 752.53,36.59 714.35,36.59 714.35,64.65 748.09,64.65 744.36,76.55 
		714.35,76.55 714.35,107.1 754.66,107.1 750.93,119 699.25,119 	"/>
	<polygon points="880.94,121.31 871.17,119.54 851.99,72.64 849.33,65.18 846.84,73.53 826.06,121.31 816.82,119.54 784.85,41.21 
		784.85,41.38 774.73,24.69 794.98,24.69 820.2,87.74 823.22,98.22 827.13,87.03 842.76,50.44 831.74,24.69 849.33,24.69 
		874.55,87.74 877.57,98.22 881.48,87.03 908.12,24.69 923.22,24.69 	"/>
</g>
</svg>
