<?xml version="1.0" standalone="no"?>
<!DOCTYPE svg PUBLIC "-//W3C//DTD SVG 20010904//EN"
 "http://www.w3.org/TR/2001/REC-SVG-20010904/DTD/svg10.dtd">
<svg version="1.0" xmlns="http://www.w3.org/2000/svg"
 width="700.000000pt" height="700.000000pt" viewBox="0 0 700.000000 700.000000"
 preserveAspectRatio="xMidYMid meet">
<metadata>
Created by potrace 1.14, written by Peter Selinger 2001-2017
</metadata>
<g transform="translate(0.000000,700.000000) scale(0.100000,-0.100000)"
fill="#000000" stroke="none">
<path d="M3330 6901 c-91 -54 -205 -119 -255 -146 -49 -26 -115 -62 -145 -78
-78 -42 -435 -221 -517 -258 -342 -158 -653 -283 -928 -374 -174 -58 -432
-131 -530 -150 -22 -5 -44 -10 -50 -11 -21 -6 -206 -40 -265 -48 -36 -5 -151
-16 -205 -20 -43 -3 -54 -12 -50 -44 2 -15 6 -83 10 -152 3 -69 7 -141 10
-160 2 -19 6 -66 10 -105 3 -38 8 -88 10 -110 3 -22 7 -56 10 -75 8 -73 35
-266 40 -290 3 -14 8 -45 11 -70 7 -51 66 -359 89 -465 8 -38 17 -79 19 -90
18 -89 100 -403 155 -596 29 -101 167 -526 189 -579 5 -14 17 -43 25 -65 66
-171 135 -341 159 -395 16 -36 44 -96 61 -135 108 -240 245 -496 430 -800 85
-140 299 -436 415 -575 49 -59 220 -247 248 -274 7 -6 52 -49 100 -96 49 -47
121 -113 159 -146 77 -67 281 -224 291 -224 3 0 12 -6 19 -14 8 -7 56 -39 107
-71 51 -32 104 -65 118 -75 38 -25 297 -155 369 -184 l63 -25 62 25 c444 186
914 530 1277 935 13 15 40 44 60 65 49 54 211 261 290 369 384 531 713 1198
959 1944 109 329 185 610 273 1001 27 120 73 356 83 425 1 11 5 34 8 50 4 17
9 48 11 70 3 22 10 67 15 100 5 33 12 83 15 110 3 28 8 61 10 75 2 14 7 56 10
95 4 38 8 76 10 85 2 9 6 59 10 111 4 52 9 110 10 129 3 35 7 182 6 210 -1 10
-12 15 -33 16 -54 1 -179 14 -238 24 -30 5 -73 12 -95 16 -39 5 -170 31 -210
41 -11 3 -31 7 -45 10 -69 15 -322 88 -455 131 -377 124 -745 279 -1195 504
-268 134 -436 222 -580 306 -93 54 -204 119 -228 134 -15 9 -29 16 -32 16 -3
0 -79 -43 -170 -97z m369 -1563 c362 -81 649 -350 775 -729 14 -42 29 -94 32
-115 3 -22 8 -42 10 -45 4 -8 18 -156 17 -190 -1 -26 0 -26 75 -28 102 -2 149
-27 186 -99 14 -28 16 -114 16 -810 l0 -779 -23 -44 c-15 -27 -38 -52 -63 -66
l-39 -23 -1183 0 c-1275 0 -1209 -3 -1262 49 -52 49 -50 21 -50 858 0 737 1
780 19 819 29 65 68 86 169 93 l86 6 2 35 c10 137 17 188 44 287 111 411 456
735 840 790 19 3 37 7 39 9 12 11 237 -2 310 -18z"/>
<path d="M3356 5043 c-34 -7 -102 -33 -152 -58 -199 -98 -349 -292 -409 -528
-13 -51 -25 -122 -26 -158 l-3 -64 732 -2 c689 -3 732 -2 733 15 9 149 -65
374 -168 513 -171 231 -436 336 -707 282z"/>
</g>
</svg>
